# xmcd
#
# Track frame offsets:
#	150
#	10490
#	22412
#	31330
#	41257
#	50777
#	61977
#	71132
#	81057
#	92617
#	103102
#	114402
#
# Disc length: 1635 seconds
# Revision: 1
# Processed by: cddbd v1.5.2PL0 Copyright (c) Steve Scherf et al.
# Submitted via: dBpowerAMP V12.0
#
DISCID=a006610c
DTITLE=Justin Tubb - Star of the Grand Ole Opry
DYEAR=1962
DGENRE=Country
TTITLE0=One For You - One For Me
TTITLE1=Looking Back To See
TTITLE2=I'd Know You Anywhere
TTITLE3=Women
TTITLE4=How The Other Half Lives
TTITLE5=That's Alright
TTITLE6=Five Minutes Of The Latest Blues
TTITLE7=How's It Feel
TTITLE8=One Eyed Red
TTITLE9=Your Side Of The Story
TTITLE10=I've Gotta Go Get My Baby
TTITLE11=If You Don't Want Me
EXTD=
EXTT0=
EXTT1=
EXTT2=
EXTT3=
EXTT4=
EXTT5=
EXTT6=
EXTT7=
EXTT8=
EXTT9=
EXTT10=
EXTT11=
PLAYORDER=
